#!OML:ASF F:\VICON\USERDATA\INSTALL\rory3\rory3.ASF
:FULLY-SPECIFIED
:DEGREES
717
root 1.15108 11.8486 -1.35836 10.302 -4.92965 0.639376
lowerback 85.0299 2.00462 -3.13291
upperback -5.27522 -0.938599 0.394993
thorax -28.0346 0.0813345 2.16848
lowerneck -25.4654 -2.36142 -3.68782
upperneck -9.713 -2.18552 5.03593
head 1.1866 -0.853954 2.15084
rclavicle 3.97569e-015 -1.49089e-014
rhumerus 16.5784 25.6541 -73.2563
rradius 37.478
rwrist 33.0735
rhand -30.0704 -55.4065
rfingers 7.12502
rthumb -3.38547 -805.359
lclavicle 3.97569e-015 -1.49089e-014
lhumerus 23.8151 -35.3705 54.4849
lradius 34.0577
lwrist -18.4382
lhand -38.5498 -48.2632
lfingers 7.12502
lthumb -11.5695 -18.6025
rfemur -77.9282 4.45885 20.3571
rtibia 109.978
rfoot -33.8536 -24.4766
rtoes -8.09185
lfemur -75.2476 5.27293 -25.0336
ltibia 108.316
lfoot -37.9291 14.6337
ltoes -12.2863
718
root 1.14617 11.975 -1.33505 10.851 -4.86314 0.342683
lowerback 83.3697 1.82567 -2.9455
upperback -4.92794 -0.889279 0.326312
thorax -27.7828 0.0631031 1.99909
lowerneck -25.4732 -2.46081 -3.4834
upperneck -9.71813 -2.37493 5.02064
head 1.18995 -0.957781 2.09063
rclavicle 1.03368e-014 -6.75868e-015
rhumerus 15.1805 25.5897 -73.871
rradius 37.7524
rwrist 32.8899
rhand -30.4275 -56.1696
rfingers 7.12502
rthumb -3.73032 -806.117
lclavicle 1.03368e-014 -6.75868e-015
lhumerus 23.0748 -35.8531 54.3957
lradius 34.4084
lwrist -20.1096
lhand -38.2675 -47.7719
lfingers 7.12502
lthumb -11.2972 -18.0962
rfemur -77.568 5.36158 20.4288
rtibia 108.816
rfoot -33.4537 -24.9238
rtoes -8.21278
lfemur -75.1607 4.96083 -24.5277
ltibia 107.2
lfoot -37.4013 14.4374
ltoes -11.8147
719
root 1.148 12.1002 -1.3059 11.4124 -4.71111 0.181293
lowerback 81.5398 1.50223 -2.69829
upperback -4.49102 -0.954123 0.214393
thorax -27.4029 0.00194703 1.81258
lowerneck -25.663 -2.56895 -3.38649
upperneck -9.66667 -2.54243 5.10162
head 1.24579 -1.04073 2.08585
rclavicle -6.75868e-015 1.13307e-014
rhumerus 13.9751 25.4949 -74.3032
rradius 38.1288
rwrist 32.8156
rhand -30.1901 -56.8452
rfingers 7.12502
rthumb -3.50103 -806.796
lclavicle -6.75868e-015 1.13307e-014
lhumerus 22.4733 -36.5531 54.0716
lradius 34.7257
lwrist -20.6512
lhand -38.5439 -47.3428
lfingers 7.12502
lthumb -11.5638 -17.6818
rfemur -77.2796 6.01724 20.2684
rtibia 107.705
rfoot -33.5972 -24.7536
rtoes -8.29191
lfemur -74.9519 4.44717 -24.2022
ltibia 106.056
lfoot -36.9402 14.3256
ltoes -11.2773
720
root 1.15379 12.2248 -1.27604 12.012 -4.53098 0.134049
lowerback 79.413 1.13738 -2.44777
upperback -3.77275 -1.05246 0.128668
thorax -27.3522 -0.0542002 1.72276
lowerneck -25.5835 -2.681 -3.67828
upperneck -9.61122 -2.61432 5.36309
head 1.26955 -1.05922 2.22317
rclavicle 1.19271e-015 -5.36719e-015
rhumerus 12.5388 25.6729 -74.5065
rradius 38.6736
rwrist 32.3778
rhand -29.7169 -57.0912
rfingers 7.12502
rthumb -3.04405 -807.049
lclavicle 1.19271e-015 -5.36719e-015
lhumerus 21.4383 -37.609 54.0119
lradius 34.9718
lwrist -20.4059
lhand -39.5104 -47.3626
lfingers 7.12502
lthumb -12.4958 -17.7562
rfemur -77.0336 6.46677 20.0045
rtibia 106.586
rfoot -33.9263 -24.4625
rtoes -4.61249
lfemur -74.7192 3.87386 -24.0554
ltibia 104.879
lfoot -36.4291 14.5295
ltoes -11.8303
721
root 1.15668 12.3595 -1.25357 12.6644 -4.39637 0.201439
lowerback 77.4668 0.909284 -2.34625
upperback -3.52343 -1.14614 0.104692
thorax -27.2016 -0.0954938 1.72413
lowerneck -25.4212 -2.81101 -3.87997
upperneck -9.51067 -2.74061 5.50211
head 1.29386 -1.11365 2.2967
rclavicle 5.1684e-015 5.96354e-015
rhumerus 10.7392 25.8983 -74.7492
rradius 39.3726
rwrist 31.7831
rhand -29.1672 -56.4008
rfingers 7.12502
rthumb -2.51318 -806.366
lclavicle 5.1684e-015 5.96354e-015
lhumerus 20.1306 -38.4968 54.2422
lradius 35.3197
lwrist -20.0626
lhand -39.3673 -48.2721
lfingers 7.12502
lthumb -12.3578 -18.6573
rfemur -76.8398 6.84274 19.7235
rtibia 105.341
rfoot -33.6092 -24.7968
rtoes -3.84293
lfemur -74.5651 3.39674 -24.0163
ltibia 103.603
lfoot -36.0074 14.372
ltoes -11.2753
722
root 1.15955 12.4883 -1.22614 13.3097 -4.25944 0.361004
lowerback 75.3408 0.70479 -2.30949
upperback -3.20096 -1.28318 0.0504949
thorax -26.9237 -0.147871 1.73578
lowerneck -26.0932 -2.98346 -3.68412
upperneck -8.62088 -3.01347 5.44278
head 1.42413 -1.24151 2.05054
rclavicle 1.98785e-014 -1.55052e-014
rhumerus 8.77825 26.0169 -75.0445
rradius 40.077
rwrist 31.8946
rhand -28.5874 -54.5716
rfingers 7.12502
rthumb -1.95325 -804.542
lclavicle 1.98785e-014 -1.55052e-014
lhumerus 19.0874 -39.2897 54.2534
lradius 35.6521
lwrist -19.7265
lhand -38.8381 -49.3854
lfingers 7.12502
lthumb -11.8475 -19.7406
rfemur -76.6921 7.07897 19.3542
rtibia 104.149
rfoot -32.7563 -25.4416
rtoes -5.14123
lfemur -74.3266 2.89823 -24.103
ltibia 102.291
lfoot -35.6238 14.5566
ltoes -11.4483
